<?plantuml 1.2026.1?><svg xmlns="http://www.w3.org/2000/svg" xmlns:xlink="http://www.w3.org/1999/xlink" contentStyleType="text/css" data-diagram-type="DESCRIPTION" height="879px" preserveAspectRatio="none" style="width:976px;height:879px;background:#FFFFFF;" version="1.1" viewBox="0 0 976 879" width="976px" zoomAndPan="magnify"><title>VerdictCouncil Use Case Diagram</title><defs/><g><g class="title" data-source-line="1"><text fill="#000000" font-family="sans-serif" font-size="14" font-weight="bold" lengthAdjust="spacing" textLength="241.0488" x="360.5956" y="23.5352">VerdictCouncil Use Case Diagram</text></g><!--cluster VerdictCouncil--><g class="cluster" data-qualified-name="VerdictCouncil" data-source-line="23" id="ent0005"><rect fill="#FFFFFF" height="797" rx="2.5" ry="2.5" style="stroke:#3E4C59;stroke-width:1;" width="733.2" x="237.04" y="44.4883"/><text fill="#000000" font-family="sans-serif" font-size="14" font-weight="bold" lengthAdjust="spacing" textLength="105.1641" x="551.058" y="60.0234">VerdictCouncil</text></g><!--entity UC1--><g class="entity" data-qualified-name="VerdictCouncil.UC1" data-source-line="24" id="ent0006"><ellipse cx="378.0318" cy="697.4916" fill="#FFF9E8" rx="111.5918" ry="33.2034" style="stroke:#8F6A2A;stroke-width:0.5;"/><text fill="#000000" font-family="sans-serif" font-size="14" lengthAdjust="spacing" textLength="135.1533" x="310.4552" y="686.8374">Case Intake &amp; Setup</text><text fill="#000000" font-family="sans-serif" font-size="14" lengthAdjust="spacing" textLength="177.8438" x="289.11" y="703.3256">US-001, US-002, US-003,</text><text fill="#000000" font-family="sans-serif" font-size="14" lengthAdjust="spacing" textLength="112.6563" x="321.7037" y="719.8139">US-004, US-005</text></g><!--entity UC2--><g class="entity" data-qualified-name="VerdictCouncil.UC2" data-source-line="25" id="ent0007"><ellipse cx="378.0329" cy="400.4922" fill="#FFF9E8" rx="115.3329" ry="34.2439" style="stroke:#8F6A2A;stroke-width:0.5;"/><text fill="#000000" font-family="sans-serif" font-size="14" lengthAdjust="spacing" textLength="156.3789" x="299.8434" y="391.0476">Evidence &amp; Fact Review</text><text fill="#000000" font-family="sans-serif" font-size="14" lengthAdjust="spacing" textLength="177.8438" x="289.111" y="407.5359">US-006, US-007, US-008,</text><text fill="#000000" font-family="sans-serif" font-size="14" lengthAdjust="spacing" textLength="112.6563" x="321.7048" y="424.0241">US-009, US-010</text></g><!--entity UC3--><g class="entity" data-qualified-name="VerdictCouncil.UC3" data-source-line="26" id="ent0008"><ellipse cx="378.0261" cy="306.4875" fill="#FFF9E8" rx="112.9961" ry="24.9992" style="stroke:#8F6A2A;stroke-width:0.5;"/><text fill="#000000" font-family="sans-serif" font-size="14" lengthAdjust="spacing" textLength="102.9834" x="326.5344" y="300.0359">Witness Review</text><text fill="#000000" font-family="sans-serif" font-size="14" lengthAdjust="spacing" textLength="173.4141" x="291.3191" y="316.5242">US-011, US-012, US-013</text></g><!--entity UC4--><g class="entity" data-qualified-name="VerdictCouncil.UC4" data-source-line="27" id="ent0009"><ellipse cx="378.0326" cy="795.4885" fill="#FFF9E8" rx="100.7226" ry="30.1802" style="stroke:#8F6A2A;stroke-width:0.5;"/><text fill="#000000" font-family="sans-serif" font-size="14" lengthAdjust="spacing" textLength="101.1104" x="327.4774" y="785.2164">Legal Research</text><text fill="#000000" font-family="sans-serif" font-size="14" lengthAdjust="spacing" textLength="177.8438" x="289.1107" y="801.7047">US-014, US-015, US-016,</text><text fill="#000000" font-family="sans-serif" font-size="14" lengthAdjust="spacing" textLength="51.8984" x="352.0834" y="818.193">US-017</text></g><!--entity UC5--><g class="entity" data-qualified-name="VerdictCouncil.UC5" data-source-line="28" id="ent0010"><ellipse cx="378.0341" cy="212.484" fill="#FFF9E8" rx="114.9441" ry="34.1357" style="stroke:#8F6A2A;stroke-width:0.5;"/><text fill="#000000" font-family="sans-serif" font-size="14" lengthAdjust="spacing" textLength="176.3809" x="289.8437" y="206.2951">Arguments &amp; Deliberation</text><text fill="#000000" font-family="sans-serif" font-size="14" lengthAdjust="spacing" textLength="177.8438" x="289.1122" y="222.7834">US-018, US-019, US-020,</text><text fill="#000000" font-family="sans-serif" font-size="14" lengthAdjust="spacing" textLength="51.8984" x="352.0849" y="239.2717">US-021</text></g><!--entity UC6--><g class="entity" data-qualified-name="VerdictCouncil.UC6" data-source-line="29" id="ent0011"><ellipse cx="378.0273" cy="111.4925" fill="#FFF9E8" rx="108.2873" ry="32.2842" style="stroke:#8F6A2A;stroke-width:0.5;"/><text fill="#000000" font-family="sans-serif" font-size="14" lengthAdjust="spacing" textLength="146.1387" x="304.958" y="103.3969">Verdict &amp; Governance</text><text fill="#000000" font-family="sans-serif" font-size="14" lengthAdjust="spacing" textLength="177.8438" x="289.1054" y="119.8852">US-022, US-023, US-024,</text><text fill="#000000" font-family="sans-serif" font-size="14" lengthAdjust="spacing" textLength="51.8984" x="352.0781" y="136.3734">US-025</text></g><!--entity UC7--><g class="entity" data-qualified-name="VerdictCouncil.UC7" data-source-line="30" id="ent0012"><ellipse cx="378.0276" cy="594.4848" fill="#FFF9E8" rx="115.9176" ry="34.4065" style="stroke:#8F6A2A;stroke-width:0.5;"/><text fill="#000000" font-family="sans-serif" font-size="14" lengthAdjust="spacing" textLength="159.4209" x="298.3171" y="585.228">Audit, Export &amp; Session</text><text fill="#000000" font-family="sans-serif" font-size="14" lengthAdjust="spacing" textLength="177.8438" x="289.1057" y="601.7163">US-026, US-027, US-028,</text><text fill="#000000" font-family="sans-serif" font-size="14" lengthAdjust="spacing" textLength="112.6563" x="321.6995" y="618.2046">US-029, US-030</text></g><!--entity UC8--><g class="entity" data-qualified-name="VerdictCouncil.UC8" data-source-line="31" id="ent0013"><ellipse cx="378.0334" cy="497.485" fill="#FFF9E8" rx="124.9834" ry="27.3967" style="stroke:#8F6A2A;stroke-width:0.5;"/><text fill="#000000" font-family="sans-serif" font-size="14" lengthAdjust="spacing" textLength="185.7529" x="285.1569" y="494.6569">Advanced Review Scenarios</text><text fill="#000000" font-family="sans-serif" font-size="14" lengthAdjust="spacing" textLength="173.4141" x="291.3264" y="511.1452">US-031, US-032, US-033</text></g><g class="entity" data-qualified-name="VerdictCouncil.GMN14" data-source-line="34" id="ent0015"><path d="M563.01,370.0083 L563.01,493.4883 L503.26,497.4883 L563.01,501.4883 L563.01,624.977 A0,0 0 0 0 563.01,624.977 L954.2371,624.977 A0,0 0 0 0 954.2371,624.977 L954.2371,380.0083 L944.2371,370.0083 L563.01,370.0083 A0,0 0 0 0 563.01,370.0083" fill="#F7FAFC" style="stroke:#5A6A72;stroke-width:0.5;"/><path d="M944.2371,370.0083 L944.2371,380.0083 L954.2371,380.0083 L944.2371,370.0083" fill="#F7FAFC" style="stroke:#5A6A72;stroke-width:0.5;"/><text fill="#000000" font-family="sans-serif" font-size="13" lengthAdjust="spacing" textLength="370.2271" x="569.01" y="387.5766">Internal to VerdictCouncil, not actors in this use case view:</text><text fill="#000000" font-family="sans-serif" font-size="13" lengthAdjust="spacing" textLength="100.4136" x="569.01" y="402.8872">- AI Agents 1-9</text><text fill="#000000" font-family="sans-serif" font-size="13" lengthAdjust="spacing" textLength="126.2422" x="569.01" y="418.1977">- SAM Web Gateway</text><text fill="#000000" font-family="sans-serif" font-size="13" lengthAdjust="spacing" textLength="189.9155" x="569.01" y="433.5083">- Solace broker and audit trail</text><text fill="#000000" font-family="sans-serif" font-size="13" lengthAdjust="spacing" textLength="148.0718" x="569.01" y="448.8188">- JWT/session handling</text><text fill="#000000" font-family="sans-serif" font-size="13" lengthAdjust="spacing" textLength="4.1133" x="569.01" y="464.1294">&#160;</text><text fill="#000000" font-family="sans-serif" font-size="13" lengthAdjust="spacing" textLength="76.064" x="569.01" y="479.4399">Agents 1-9:</text><text fill="#000000" font-family="sans-serif" font-size="13" lengthAdjust="spacing" textLength="118.1807" x="569.01" y="494.7505">1. Case Processing</text><text fill="#000000" font-family="sans-serif" font-size="13" lengthAdjust="spacing" textLength="154.4893" x="569.01" y="510.061">2. Complexity &amp; Routing</text><text fill="#000000" font-family="sans-serif" font-size="13" lengthAdjust="spacing" textLength="127.2642" x="569.01" y="525.3716">3. Evidence Analysis</text><text fill="#000000" font-family="sans-serif" font-size="13" lengthAdjust="spacing" textLength="140.6133" x="569.01" y="540.6821">4. Fact Reconstruction</text><text fill="#000000" font-family="sans-serif" font-size="13" lengthAdjust="spacing" textLength="120.6436" x="569.01" y="555.9927">5. Witness Analysis</text><text fill="#000000" font-family="sans-serif" font-size="13" lengthAdjust="spacing" textLength="122.8652" x="569.01" y="571.3032">6. Legal Knowledge</text><text fill="#000000" font-family="sans-serif" font-size="13" lengthAdjust="spacing" textLength="164.5884" x="569.01" y="586.6138">7. Argument Construction</text><text fill="#000000" font-family="sans-serif" font-size="13" lengthAdjust="spacing" textLength="93.5391" x="569.01" y="601.9243">8. Deliberation</text><text fill="#000000" font-family="sans-serif" font-size="13" lengthAdjust="spacing" textLength="152.147" x="569.01" y="617.2348">9. Governance &amp; Verdict</text></g><!--entity Judge--><g class="entity" data-qualified-name="Judge" data-source-line="19" id="ent0002"><ellipse cx="99.5225" cy="427.2483" fill="#F1F1F1" rx="16" ry="16" style="stroke:#181818;stroke-width:0.5;"/><path d="M99.5225,447.2483 C103.5225,447.2483 106.5225,447.2483 110.5225,443.2483 C118.5225,443.2483 126.5225,451.2483 126.5225,459.2483 L126.5225,463.2483 C126.5225,467.2483 122.5225,471.2483 118.5225,471.2483 L80.5225,471.2483 C76.5225,471.2483 72.5225,467.2483 72.5225,463.2483 L72.5225,459.2483 C72.5225,451.2483 80.5225,443.2483 88.5225,443.2483 C92.5225,447.2483 95.5225,447.2483 99.5225,447.2483" fill="#F1F1F1" style="stroke:#181818;stroke-width:0.5;"/><text fill="#000000" font-family="sans-serif" font-size="14" lengthAdjust="spacing" textLength="187.0449" x="6" y="485.2834">Tribunal Magistrate / Judge</text></g><!--entity OpenAI--><g class="entity" data-qualified-name="OpenAI" data-source-line="20" id="ent0003"><ellipse cx="99.5176" cy="666.9983" fill="#F1F1F1" rx="16" ry="16" style="stroke:#181818;stroke-width:0.5;"/><path d="M99.5176,686.9983 C103.5176,686.9983 106.5176,686.9983 110.5176,682.9983 C118.5176,682.9983 126.5176,690.9983 126.5176,698.9983 L126.5176,702.9983 C126.5176,706.9983 122.5176,710.9983 118.5176,710.9983 L80.5176,710.9983 C76.5176,710.9983 72.5176,706.9983 72.5176,702.9983 L72.5176,698.9983 C72.5176,690.9983 80.5176,682.9983 88.5176,682.9983 C92.5176,686.9983 95.5176,686.9983 99.5176,686.9983" fill="#F1F1F1" style="stroke:#181818;stroke-width:0.5;"/><text fill="#000000" font-family="sans-serif" font-size="14" lengthAdjust="spacing" textLength="170.4951" x="14.27" y="725.0334">OpenAI Platform Services</text><text fill="#000000" font-family="sans-serif" font-size="14" lengthAdjust="spacing" textLength="164.5205" x="14.27" y="741.5217">(Files API, Vector Stores)</text></g><!--entity Judiciary--><g class="entity" data-qualified-name="Judiciary" data-source-line="21" id="ent0004"><ellipse cx="99.5204" cy="795.9983" fill="#F1F1F1" rx="16" ry="16" style="stroke:#181818;stroke-width:0.5;"/><path d="M99.5204,815.9983 C103.5204,815.9983 106.5204,815.9983 110.5204,811.9983 C118.5204,811.9983 126.5204,819.9983 126.5204,827.9983 L126.5204,831.9983 C126.5204,835.9983 122.5204,839.9983 118.5204,839.9983 L80.5204,839.9983 C76.5204,839.9983 72.5204,835.9983 72.5204,831.9983 L72.5204,827.9983 C72.5204,819.9983 80.5204,811.9983 88.5204,811.9983 C92.5204,815.9983 95.5204,815.9983 99.5204,815.9983" fill="#F1F1F1" style="stroke:#181818;stroke-width:0.5;"/><text fill="#000000" font-family="sans-serif" font-size="14" lengthAdjust="spacing" textLength="165.8809" x="16.58" y="854.0334">Judiciary Search Services</text><text fill="#000000" font-family="sans-serif" font-size="14" lengthAdjust="spacing" textLength="155.3467" x="16.58" y="870.5217">(judiciary.gov.sg, PAIR)</text></g><!--link Judge to UC1--><g class="link" data-entity-1="ent0002" data-entity-2="ent0006" data-link-type="dependency" data-source-line="53" id="lnk17"><path d="M116.46,488.3683 C136.5,532.6483 174.94,604.2983 229.04,646.4883 C246.3,659.9383 261.6827,667.9515 282.4127,675.3915" fill="none" id="Judge-to-UC1" style="stroke:#6C757D;stroke-width:1;"/><polygon fill="#6C757D" points="288.06,677.4183,280.9403,670.6132,283.3539,675.7293,278.2378,678.1429,288.06,677.4183" style="stroke:#6C757D;stroke-width:1;"/></g><!--link Judge to UC2--><g class="link" data-entity-1="ent0002" data-entity-2="ent0007" data-link-type="dependency" data-source-line="54" id="lnk18"><path d="M193.36,433.0383 C220.66,428.1983 244.7121,423.9353 272.3621,419.0353" fill="none" id="Judge-to-UC2" style="stroke:#6C757D;stroke-width:1;"/><polygon fill="#6C757D" points="278.27,417.9883,268.7101,415.6201,273.3467,418.8608,270.1061,423.4974,278.27,417.9883" style="stroke:#6C757D;stroke-width:1;"/></g><!--link Judge to UC3--><g class="link" data-entity-1="ent0002" data-entity-2="ent0008" data-link-type="dependency" data-source-line="55" id="lnk19"><path d="M141.64,410.3683 C165.55,389.4483 197.19,364.7283 229.04,348.4883 C249.39,338.1183 266.8778,331.6358 288.8378,325.4058" fill="none" id="Judge-to-UC3" style="stroke:#6C757D;stroke-width:1;"/><polygon fill="#6C757D" points="294.61,323.7683,284.86,322.3765,289.7998,325.1329,287.0434,330.0728,294.61,323.7683" style="stroke:#6C757D;stroke-width:1;"/></g><!--link Judge to UC4--><g class="link" data-entity-1="ent0002" data-entity-2="ent0009" data-link-type="dependency" data-source-line="56" id="lnk20"><path d="M122.46,488.4683 C142.53,525.1383 172.18,581.9483 193.04,633.4883 C213.14,683.1383 191.25,710.5383 229.04,748.4883 C244.93,764.4383 260.4837,773.1341 281.9337,780.1041" fill="none" id="Judge-to-UC4" style="stroke:#6C757D;stroke-width:1;"/><polygon fill="#6C757D" points="287.64,781.9583,280.3167,775.3728,282.8847,780.4131,277.8444,782.9812,287.64,781.9583" style="stroke:#6C757D;stroke-width:1;"/></g><!--link Judge to UC5--><g class="link" data-entity-1="ent0002" data-entity-2="ent0010" data-link-type="dependency" data-source-line="57" id="lnk21"><path d="M118.43,410.4183 C139.39,368.7383 177.86,303.4583 229.04,264.4883 C246.27,251.3783 261.4383,243.4579 281.9283,235.9279" fill="none" id="Judge-to-UC5" style="stroke:#6C757D;stroke-width:1;"/><polygon fill="#6C757D" points="287.56,233.8583,277.7326,233.2083,282.8669,235.583,280.4921,240.7172,287.56,233.8583" style="stroke:#6C757D;stroke-width:1;"/></g><!--link Judge to UC6--><g class="link" data-entity-1="ent0002" data-entity-2="ent0011" data-link-type="dependency" data-source-line="58" id="lnk22"><path d="M107.43,410.3683 C120.35,348.5983 153.96,228.5083 229.04,160.4883 C244.99,146.0483 259.6411,137.8426 280.0711,130.6426" fill="none" id="Judge-to-UC6" style="stroke:#6C757D;stroke-width:1;"/><polygon fill="#6C757D" points="285.73,128.6483,275.9122,127.8672,281.0143,130.3102,278.5712,135.4123,285.73,128.6483" style="stroke:#6C757D;stroke-width:1;"/></g><!--link Judge to UC7--><g class="link" data-entity-1="ent0002" data-entity-2="ent0012" data-link-type="dependency" data-source-line="59" id="lnk23"><path d="M147.5,488.5183 C170.95,506.6583 200.37,527.4883 229.04,542.4883 C249.55,553.2183 267.1003,560.5664 288.9503,568.2564" fill="none" id="Judge-to-UC7" style="stroke:#6C757D;stroke-width:1;"/><polygon fill="#6C757D" points="294.61,570.2483,287.4484,563.4873,289.8936,568.5884,284.7925,571.0336,294.61,570.2483" style="stroke:#6C757D;stroke-width:1;"/></g><!--link Judge to UC8--><g class="link" data-entity-1="ent0002" data-entity-2="ent0013" data-link-type="dependency" data-source-line="60" id="lnk24"><path d="M193.36,465.6083 C220.82,470.3683 245.0483,474.5829 272.8383,479.4029" fill="none" id="Judge-to-UC8" style="stroke:#6C757D;stroke-width:1;"/><polygon fill="#6C757D" points="278.75,480.4283,270.566,474.9491,273.8236,479.5738,269.1988,482.8314,278.75,480.4283" style="stroke:#6C757D;stroke-width:1;"/></g><!--link OpenAI to UC1--><g class="link" data-entity-1="ent0003" data-entity-2="ent0006" data-link-type="dependency" data-source-line="62" id="lnk25"><path d="M184.99,697.4883 C210.56,697.4883 233.03,697.4883 260.06,697.4883" fill="none" id="OpenAI-to-UC1" style="stroke:#6C757D;stroke-width:1;"/><polygon fill="#6C757D" points="266.06,697.4883,257.06,693.4883,261.06,697.4883,257.06,701.4883,266.06,697.4883" style="stroke:#6C757D;stroke-width:1;"/></g><!--link OpenAI to UC4--><g class="link" data-entity-1="ent0003" data-entity-2="ent0009" data-link-type="dependency" data-source-line="63" id="lnk26"><path d="M185.24,732.0783 C199.78,737.7383 214.8,743.4083 229.04,748.4883 C253.93,757.3683 275.7149,764.5429 300.2049,772.2229" fill="none" id="OpenAI-to-UC4" style="stroke:#6C757D;stroke-width:1;"/><polygon fill="#6C757D" points="305.93,774.0183,298.5393,767.5085,301.1591,772.5221,296.1455,775.1419,305.93,774.0183" style="stroke:#6C757D;stroke-width:1;"/></g><!--link Judiciary to UC4--><g class="link" data-entity-1="ent0004" data-entity-2="ent0009" data-link-type="dependency" data-source-line="64" id="lnk27"><path d="M182.73,817.2683 C214.25,813.7383 244.4874,810.3469 277.0374,806.6969" fill="none" id="Judiciary-to-UC4" style="stroke:#6C757D;stroke-width:1;"/><polygon fill="#6C757D" points="283,806.0283,273.6103,803.0561,278.0311,806.5855,274.5018,811.0063,283,806.0283" style="stroke:#6C757D;stroke-width:1;"/></g><?plantuml-src TLJVJzim47xFNt7gf6cJsa2IjcdtC2ah5C66XYYC5rvCObAFrAvijwMQzh_lx5oWHgmFSU_NT-VlpcU5RJZyuheIfPsfZIn50xU6mupXvqImMhDLrF172rQ15lNIGYKqBwrGCZ9FGguPUe1PiahjXApXaJM67rXOQPLUs3scOJjkrEhGk36yT8d-H03VMFbKQooXcgb6QVWmdy-dfnDdKRhYchIJ-RX82zGMMgiTASUpV9IVH7yFe5sDJDODWHz2PAV3sMZwdvJu2t2aikz0Z8fnaQVlGkJpOZv3YCZV72usLOrNDz2xqU9X8ra3bwmMncg6m4UjlKVEFzTS5kVUc_vUDSm-Ahs21TTRKN9pBp_DHSCD55VdVUoSZrlWXvlFlTUSeXHCxptIgxJWJ9VBGwZVdIskrJOsTH-kYlDh18fU-Uk5uz7pR7ITkvqbFecVbtDfsHE7ZvZ1RjRtydOnE3vE-k3FbCwiJuOXAKQz02_rUATRKN5PEh0vNWgk-LRm7KMEAJAdSz91Jbj5SXn2PXxoJbZ9ZGcW4gekeUgIB8mS-iWVlCQsNNFZ-QD8AZyPqJcc8f8yX1XvY4BNcnMNrk25JdWZ7ZZs7zyGnKm8X2wG7XDOceHWOmz63K6eCxNbMZ8aYlpf7cb6vx03UiDotbQ5xRTzE7rUAsrztunvAIebcbEYEUreJgdAx0tDanQpshfwAk8P5YMNJ0jbsk2C6C-eqWmPHnJ_pFn-GG7S9BbxDMxhXEFNTwxjLZ4W9DYbCAu6y4MuZ5yymW3mzHIrfpmPJ4ctA2xXZZ_06Jw-7TjtMjKm7BK7hPwu1YOhO8uOm3Sg6lAvkBivCYqzi4IN1fTTv6slIThCITnkpokjIXU0VawTebgjrWr_5dQFN5-hZUriMGml0r_WjVT666yOnjtubqhYpjYqYzUPHZ5q4ns4Z6Dev_MxLBk6utRnwZo6RWQnZZTOapWOIg-RnWVJXVLI6z36aI3NBxVaslKs67nrco2Gqa3A0caOIAD06WTI7aYJAAAzs6KCH0zBkwxJ_0C0?></g></svg>